<mxfile host="app.diagrams.net" modified="2022-09-17T11:39:39.281Z" agent="5.0 (Windows)" etag="Fuhitw9rxyQGZYtKY7Dn" version="20.3.1" type="github" pages="9">
  <diagram name="Entry point" id="8ce9d11a-91a2-4d17-14d8-a56ed91bf033">
    <mxGraphModel dx="1497" dy="792" grid="1" gridSize="10" guides="1" tooltips="1" connect="1" arrows="1" fold="1" page="1" pageScale="1" pageWidth="1600" pageHeight="1200" background="none" math="0" shadow="0">
      <root>
        <mxCell id="0" />
        <mxCell id="1" parent="0" />
        <mxCell id="hAXQzyxzrUF089T4oHqe-1" value="&lt;div&gt;apply.py&lt;/div&gt;" style="text;html=1;strokeColor=none;fillColor=none;align=center;verticalAlign=middle;whiteSpace=wrap;rounded=0;" parent="1" vertex="1">
          <mxGeometry x="530" y="20" width="60" height="40" as="geometry" />
        </mxCell>
        <mxCell id="hAXQzyxzrUF089T4oHqe-3" value="Parameters" style="swimlane;fontStyle=0;childLayout=stackLayout;horizontal=1;startSize=30;horizontalStack=0;resizeParent=1;resizeParentMax=0;resizeLast=0;collapsible=1;marginBottom=0;" parent="1" vertex="1">
          <mxGeometry x="320" y="90" width="140" height="150" as="geometry" />
        </mxCell>
        <mxCell id="hAXQzyxzrUF089T4oHqe-4" value="local_script_fh" style="text;strokeColor=none;fillColor=none;align=left;verticalAlign=middle;spacingLeft=4;spacingRight=4;overflow=hidden;points=[[0,0.5],[1,0.5]];portConstraint=eastwest;rotatable=0;" parent="hAXQzyxzrUF089T4oHqe-3" vertex="1">
          <mxGeometry y="30" width="140" height="30" as="geometry" />
        </mxCell>
        <mxCell id="hAXQzyxzrUF089T4oHqe-5" value="all_vms" style="text;strokeColor=none;fillColor=none;align=left;verticalAlign=middle;spacingLeft=4;spacingRight=4;overflow=hidden;points=[[0,0.5],[1,0.5]];portConstraint=eastwest;rotatable=0;" parent="hAXQzyxzrUF089T4oHqe-3" vertex="1">
          <mxGeometry y="60" width="140" height="30" as="geometry" />
        </mxCell>
        <mxCell id="hAXQzyxzrUF089T4oHqe-6" value="vminfo" style="text;strokeColor=none;fillColor=none;align=left;verticalAlign=middle;spacingLeft=4;spacingRight=4;overflow=hidden;points=[[0,0.5],[1,0.5]];portConstraint=eastwest;rotatable=0;" parent="hAXQzyxzrUF089T4oHqe-3" vertex="1">
          <mxGeometry y="90" width="140" height="30" as="geometry" />
        </mxCell>
        <mxCell id="hAXQzyxzrUF089T4oHqe-7" value="subnet_configs" style="text;strokeColor=none;fillColor=none;align=left;verticalAlign=middle;spacingLeft=4;spacingRight=4;overflow=hidden;points=[[0,0.5],[1,0.5]];portConstraint=eastwest;rotatable=0;" parent="hAXQzyxzrUF089T4oHqe-3" vertex="1">
          <mxGeometry y="120" width="140" height="30" as="geometry" />
        </mxCell>
        <mxCell id="hAXQzyxzrUF089T4oHqe-8" value="" style="shape=flexArrow;endArrow=classic;html=1;rounded=0;" parent="1" edge="1">
          <mxGeometry width="50" height="50" relative="1" as="geometry">
            <mxPoint x="490" y="154.58" as="sourcePoint" />
            <mxPoint x="650" y="154.58" as="targetPoint" />
          </mxGeometry>
        </mxCell>
        <mxCell id="hAXQzyxzrUF089T4oHqe-9" value="&lt;font style=&quot;font-size: 8px;&quot;&gt;vminfo.json&lt;/font&gt;" style="shape=document;whiteSpace=wrap;html=1;boundedLbl=1;" parent="1" vertex="1">
          <mxGeometry x="90" y="10" width="60" height="50" as="geometry" />
        </mxCell>
        <mxCell id="hAXQzyxzrUF089T4oHqe-10" value="" style="edgeStyle=segmentEdgeStyle;endArrow=classic;html=1;rounded=0;entryX=0;entryY=0.5;entryDx=0;entryDy=0;" parent="1" source="hAXQzyxzrUF089T4oHqe-9" target="hAXQzyxzrUF089T4oHqe-5" edge="1">
          <mxGeometry width="50" height="50" relative="1" as="geometry">
            <mxPoint x="120" y="210" as="sourcePoint" />
            <mxPoint x="170" y="160" as="targetPoint" />
            <Array as="points">
              <mxPoint x="120" y="165" />
            </Array>
          </mxGeometry>
        </mxCell>
        <mxCell id="hAXQzyxzrUF089T4oHqe-11" value="&lt;div style=&quot;font-size: 7px;&quot;&gt;&lt;font style=&quot;font-size: 7px;&quot;&gt;LOCAL_SCRIPT_FILENAME&lt;/font&gt;&lt;/div&gt;&lt;div style=&quot;font-size: 7px;&quot;&gt;&lt;font style=&quot;font-size: 7px;&quot;&gt;&#39;scripts/netconfig.sh&#39;&lt;br style=&quot;font-size: 7px;&quot;&gt;&lt;/font&gt;&lt;/div&gt;" style="shape=document;whiteSpace=wrap;html=1;boundedLbl=1;fontSize=7;" parent="1" vertex="1">
          <mxGeometry x="160" y="10" width="120" height="50" as="geometry" />
        </mxCell>
        <mxCell id="hAXQzyxzrUF089T4oHqe-12" value="" style="edgeStyle=segmentEdgeStyle;endArrow=classic;html=1;rounded=0;fontSize=7;exitX=0.514;exitY=0.843;exitDx=0;exitDy=0;exitPerimeter=0;" parent="1" source="hAXQzyxzrUF089T4oHqe-11" target="hAXQzyxzrUF089T4oHqe-4" edge="1">
          <mxGeometry width="50" height="50" relative="1" as="geometry">
            <mxPoint x="100" y="120" as="sourcePoint" />
            <mxPoint x="150" y="70" as="targetPoint" />
            <Array as="points">
              <mxPoint x="220" y="52" />
              <mxPoint x="220" y="135" />
            </Array>
          </mxGeometry>
        </mxCell>
        <mxCell id="hAXQzyxzrUF089T4oHqe-13" value="&lt;div style=&quot;font-size: 6px;&quot;&gt;SUBNET_CONFIG_FILE&lt;/div&gt;&lt;div style=&quot;font-size: 6px;&quot;&gt;&#39;networks.yaml&#39;&lt;br style=&quot;font-size: 6px;&quot;&gt;&lt;/div&gt;" style="shape=document;whiteSpace=wrap;html=1;boundedLbl=1;fontSize=6;" parent="1" vertex="1">
          <mxGeometry y="10" width="80" height="60" as="geometry" />
        </mxCell>
        <mxCell id="hAXQzyxzrUF089T4oHqe-14" value="" style="edgeStyle=segmentEdgeStyle;endArrow=classic;html=1;rounded=0;fontSize=6;entryX=0;entryY=0.5;entryDx=0;entryDy=0;exitX=0.385;exitY=0.953;exitDx=0;exitDy=0;exitPerimeter=0;" parent="1" source="hAXQzyxzrUF089T4oHqe-13" target="hAXQzyxzrUF089T4oHqe-7" edge="1">
          <mxGeometry width="50" height="50" relative="1" as="geometry">
            <mxPoint x="20" y="190" as="sourcePoint" />
            <mxPoint x="90" y="200" as="targetPoint" />
            <Array as="points">
              <mxPoint x="31" y="225" />
            </Array>
          </mxGeometry>
        </mxCell>
        <mxCell id="hAXQzyxzrUF089T4oHqe-15" value="" style="edgeStyle=segmentEdgeStyle;endArrow=classic;html=1;rounded=0;fontSize=6;entryX=0;entryY=0.5;entryDx=0;entryDy=0;exitX=0.292;exitY=0.977;exitDx=0;exitDy=0;exitPerimeter=0;" parent="1" source="hAXQzyxzrUF089T4oHqe-11" target="hAXQzyxzrUF089T4oHqe-6" edge="1">
          <mxGeometry width="50" height="50" relative="1" as="geometry">
            <mxPoint x="540" y="80" as="sourcePoint" />
            <mxPoint x="590" y="30" as="targetPoint" />
            <Array as="points">
              <mxPoint x="195" y="195" />
            </Array>
          </mxGeometry>
        </mxCell>
      </root>
    </mxGraphModel>
  </diagram>
  <diagram id="NnIbAKvoQ8dPKDMeVBmU" name="generate_script_for_vm">
    <mxGraphModel dx="1422" dy="752" grid="1" gridSize="10" guides="1" tooltips="1" connect="1" arrows="1" fold="1" page="1" pageScale="1" pageWidth="1200" pageHeight="1600" math="0" shadow="0">
      <root>
        <mxCell id="0" />
        <mxCell id="1" parent="0" />
        <mxCell id="WUDY_DLtJ3YWReSSxZhu-1" value="generate_script_for_vm" style="shape=parallelogram;perimeter=parallelogramPerimeter;whiteSpace=wrap;html=1;fixedSize=1;" vertex="1" parent="1">
          <mxGeometry x="40" y="10" width="170" height="70" as="geometry" />
        </mxCell>
        <mxCell id="WUDY_DLtJ3YWReSSxZhu-2" value="Control plane ?" style="rhombus;whiteSpace=wrap;html=1;fontSize=11;" vertex="1" parent="1">
          <mxGeometry x="85" y="160" width="80" height="80" as="geometry" />
        </mxCell>
        <mxCell id="WUDY_DLtJ3YWReSSxZhu-3" value="" style="endArrow=classic;html=1;rounded=0;fontSize=11;" edge="1" parent="1" source="WUDY_DLtJ3YWReSSxZhu-1" target="WUDY_DLtJ3YWReSSxZhu-2">
          <mxGeometry width="50" height="50" relative="1" as="geometry">
            <mxPoint x="-80" y="350" as="sourcePoint" />
            <mxPoint x="-30" y="300" as="targetPoint" />
          </mxGeometry>
        </mxCell>
        <mxCell id="WUDY_DLtJ3YWReSSxZhu-4" value="Management cluster ?" style="rhombus;whiteSpace=wrap;html=1;fontSize=11;" vertex="1" parent="1">
          <mxGeometry x="250" y="160" width="80" height="80" as="geometry" />
        </mxCell>
        <mxCell id="WUDY_DLtJ3YWReSSxZhu-5" value="" style="endArrow=classic;html=1;rounded=0;fontSize=11;entryX=0;entryY=0.5;entryDx=0;entryDy=0;exitX=1;exitY=0.5;exitDx=0;exitDy=0;" edge="1" parent="1" source="WUDY_DLtJ3YWReSSxZhu-2" target="WUDY_DLtJ3YWReSSxZhu-4">
          <mxGeometry relative="1" as="geometry">
            <mxPoint x="-100" y="320" as="sourcePoint" />
            <mxPoint y="320" as="targetPoint" />
            <Array as="points">
              <mxPoint x="210" y="200" />
            </Array>
          </mxGeometry>
        </mxCell>
        <mxCell id="WUDY_DLtJ3YWReSSxZhu-6" value="Yes" style="edgeLabel;resizable=0;html=1;align=center;verticalAlign=middle;fontSize=11;" connectable="0" vertex="1" parent="WUDY_DLtJ3YWReSSxZhu-5">
          <mxGeometry relative="1" as="geometry" />
        </mxCell>
        <mxCell id="WUDY_DLtJ3YWReSSxZhu-7" value="" style="endArrow=classic;html=1;rounded=0;fontSize=11;exitX=1;exitY=0.5;exitDx=0;exitDy=0;" edge="1" parent="1" target="WUDY_DLtJ3YWReSSxZhu-9">
          <mxGeometry relative="1" as="geometry">
            <mxPoint x="330" y="199.76" as="sourcePoint" />
            <mxPoint x="415" y="199.76" as="targetPoint" />
            <Array as="points">
              <mxPoint x="375" y="199.76" />
            </Array>
          </mxGeometry>
        </mxCell>
        <mxCell id="WUDY_DLtJ3YWReSSxZhu-8" value="Yes" style="edgeLabel;resizable=0;html=1;align=center;verticalAlign=middle;fontSize=11;" connectable="0" vertex="1" parent="WUDY_DLtJ3YWReSSxZhu-7">
          <mxGeometry relative="1" as="geometry" />
        </mxCell>
        <mxCell id="WUDY_DLtJ3YWReSSxZhu-9" value="management_routes_management_control_plane" style="shape=parallelogram;perimeter=parallelogramPerimeter;whiteSpace=wrap;html=1;fixedSize=1;fontSize=4;" vertex="1" parent="1">
          <mxGeometry x="440" y="170" width="120" height="60" as="geometry" />
        </mxCell>
        <mxCell id="WUDY_DLtJ3YWReSSxZhu-10" value="Load balancer ?" style="rhombus;whiteSpace=wrap;html=1;fontSize=9;" vertex="1" parent="1">
          <mxGeometry x="85" y="400" width="80" height="80" as="geometry" />
        </mxCell>
        <mxCell id="WUDY_DLtJ3YWReSSxZhu-11" value="" style="endArrow=classic;html=1;rounded=0;fontSize=11;entryX=0.5;entryY=0;entryDx=0;entryDy=0;exitX=0.5;exitY=1;exitDx=0;exitDy=0;" edge="1" parent="1" source="WUDY_DLtJ3YWReSSxZhu-2" target="WUDY_DLtJ3YWReSSxZhu-10">
          <mxGeometry relative="1" as="geometry">
            <mxPoint x="165" y="260" as="sourcePoint" />
            <mxPoint x="250" y="260" as="targetPoint" />
            <Array as="points" />
          </mxGeometry>
        </mxCell>
        <mxCell id="WUDY_DLtJ3YWReSSxZhu-12" value="&lt;div&gt;No&lt;/div&gt;" style="edgeLabel;resizable=0;html=1;align=center;verticalAlign=middle;fontSize=11;" connectable="0" vertex="1" parent="WUDY_DLtJ3YWReSSxZhu-11">
          <mxGeometry relative="1" as="geometry" />
        </mxCell>
        <mxCell id="WUDY_DLtJ3YWReSSxZhu-13" value="&lt;div style=&quot;font-family: Consolas, &amp;quot;Courier New&amp;quot;, monospace; font-weight: normal; font-size: 4px; line-height: 19px;&quot;&gt;&lt;div style=&quot;font-size: 4px;&quot;&gt;&lt;span style=&quot;background-color: rgb(255, 255, 255);&quot;&gt;&lt;span style=&quot;font-size: 4px;&quot;&gt;management_routes_management_load_balancer&lt;/span&gt;&lt;/span&gt;&lt;/div&gt;&lt;/div&gt;" style="shape=parallelogram;perimeter=parallelogramPerimeter;whiteSpace=wrap;html=1;fixedSize=1;fontSize=4;" vertex="1" parent="1">
          <mxGeometry x="380" y="410" width="120" height="60" as="geometry" />
        </mxCell>
        <mxCell id="WUDY_DLtJ3YWReSSxZhu-14" value="" style="endArrow=classic;html=1;rounded=0;fontSize=11;entryX=0;entryY=0.5;entryDx=0;entryDy=0;exitX=1;exitY=0.5;exitDx=0;exitDy=0;" edge="1" parent="1" target="WUDY_DLtJ3YWReSSxZhu-22">
          <mxGeometry relative="1" as="geometry">
            <mxPoint x="165" y="440" as="sourcePoint" />
            <mxPoint x="222" y="490" as="targetPoint" />
            <Array as="points" />
          </mxGeometry>
        </mxCell>
        <mxCell id="WUDY_DLtJ3YWReSSxZhu-15" value="Yes" style="edgeLabel;resizable=0;html=1;align=center;verticalAlign=middle;fontSize=11;" connectable="0" vertex="1" parent="WUDY_DLtJ3YWReSSxZhu-14">
          <mxGeometry relative="1" as="geometry" />
        </mxCell>
        <mxCell id="WUDY_DLtJ3YWReSSxZhu-16" value="" style="endArrow=classic;html=1;rounded=0;fontSize=11;entryX=0.5;entryY=0;entryDx=0;entryDy=0;exitX=0.5;exitY=1;exitDx=0;exitDy=0;" edge="1" parent="1" target="WUDY_DLtJ3YWReSSxZhu-18">
          <mxGeometry relative="1" as="geometry">
            <mxPoint x="124.76000000000022" y="480" as="sourcePoint" />
            <mxPoint x="124.75999999999999" y="530" as="targetPoint" />
            <Array as="points" />
          </mxGeometry>
        </mxCell>
        <mxCell id="WUDY_DLtJ3YWReSSxZhu-17" value="&lt;div&gt;No&lt;/div&gt;" style="edgeLabel;resizable=0;html=1;align=center;verticalAlign=middle;fontSize=11;" connectable="0" vertex="1" parent="WUDY_DLtJ3YWReSSxZhu-16">
          <mxGeometry relative="1" as="geometry" />
        </mxCell>
        <mxCell id="WUDY_DLtJ3YWReSSxZhu-18" value="Management cluster ?" style="rhombus;whiteSpace=wrap;html=1;fontSize=11;" vertex="1" parent="1">
          <mxGeometry x="85" y="620" width="80" height="80" as="geometry" />
        </mxCell>
        <mxCell id="WUDY_DLtJ3YWReSSxZhu-19" value="" style="endArrow=classic;html=1;rounded=0;fontSize=11;exitX=1;exitY=0.5;exitDx=0;exitDy=0;entryX=0;entryY=0.5;entryDx=0;entryDy=0;" edge="1" parent="1" source="WUDY_DLtJ3YWReSSxZhu-18" target="WUDY_DLtJ3YWReSSxZhu-32">
          <mxGeometry relative="1" as="geometry">
            <mxPoint x="165" y="579.76" as="sourcePoint" />
            <mxPoint x="260" y="660" as="targetPoint" />
            <Array as="points" />
          </mxGeometry>
        </mxCell>
        <mxCell id="WUDY_DLtJ3YWReSSxZhu-20" value="Yes" style="edgeLabel;resizable=0;html=1;align=center;verticalAlign=middle;fontSize=11;" connectable="0" vertex="1" parent="WUDY_DLtJ3YWReSSxZhu-19">
          <mxGeometry relative="1" as="geometry" />
        </mxCell>
        <mxCell id="WUDY_DLtJ3YWReSSxZhu-21" value="&lt;div style=&quot;font-family: Consolas, &amp;quot;Courier New&amp;quot;, monospace; font-weight: normal; font-size: 4px; line-height: 19px;&quot;&gt;&lt;div style=&quot;font-size: 4px;&quot;&gt;&lt;span style=&quot;background-color: rgb(255, 255, 255);&quot;&gt;&lt;span style=&quot;font-size: 4px;&quot;&gt;management_routes_workload_control_plane&lt;/span&gt;&lt;/span&gt;&lt;/div&gt;&lt;/div&gt;" style="shape=parallelogram;perimeter=parallelogramPerimeter;whiteSpace=wrap;html=1;fixedSize=1;fontSize=4;" vertex="1" parent="1">
          <mxGeometry x="228" y="290" width="120" height="60" as="geometry" />
        </mxCell>
        <mxCell id="WUDY_DLtJ3YWReSSxZhu-22" value="Management cluster ?" style="rhombus;whiteSpace=wrap;html=1;fontSize=9;" vertex="1" parent="1">
          <mxGeometry x="240" y="400" width="80" height="80" as="geometry" />
        </mxCell>
        <mxCell id="WUDY_DLtJ3YWReSSxZhu-23" value="" style="endArrow=classic;html=1;rounded=0;fontSize=11;entryX=0;entryY=0.5;entryDx=0;entryDy=0;exitX=1;exitY=0.5;exitDx=0;exitDy=0;" edge="1" parent="1" source="WUDY_DLtJ3YWReSSxZhu-22" target="WUDY_DLtJ3YWReSSxZhu-13">
          <mxGeometry relative="1" as="geometry">
            <mxPoint x="320" y="399" as="sourcePoint" />
            <mxPoint x="395" y="399" as="targetPoint" />
            <Array as="points" />
          </mxGeometry>
        </mxCell>
        <mxCell id="WUDY_DLtJ3YWReSSxZhu-24" value="Yes" style="edgeLabel;resizable=0;html=1;align=center;verticalAlign=middle;fontSize=11;" connectable="0" vertex="1" parent="WUDY_DLtJ3YWReSSxZhu-23">
          <mxGeometry relative="1" as="geometry" />
        </mxCell>
        <mxCell id="WUDY_DLtJ3YWReSSxZhu-25" value="&lt;div style=&quot;font-family: Consolas, &amp;quot;Courier New&amp;quot;, monospace; font-weight: normal; font-size: 4px; line-height: 19px;&quot;&gt;&lt;div style=&quot;font-size: 4px;&quot;&gt;&lt;span style=&quot;background-color: rgb(255, 255, 255);&quot;&gt;&lt;span style=&quot;font-size: 4px;&quot;&gt;management_routes_workload_load_balancer&lt;/span&gt;&lt;/span&gt;&lt;/div&gt;&lt;/div&gt;" style="shape=parallelogram;perimeter=parallelogramPerimeter;whiteSpace=wrap;html=1;fixedSize=1;fontSize=4;" vertex="1" parent="1">
          <mxGeometry x="220" y="540" width="120" height="60" as="geometry" />
        </mxCell>
        <mxCell id="WUDY_DLtJ3YWReSSxZhu-26" value="" style="endArrow=classic;html=1;rounded=0;fontSize=11;entryX=0.5;entryY=0;entryDx=0;entryDy=0;exitX=0.5;exitY=1;exitDx=0;exitDy=0;" edge="1" parent="1" source="WUDY_DLtJ3YWReSSxZhu-22" target="WUDY_DLtJ3YWReSSxZhu-25">
          <mxGeometry relative="1" as="geometry">
            <mxPoint x="330" y="489" as="sourcePoint" />
            <mxPoint x="400" y="489" as="targetPoint" />
            <Array as="points" />
          </mxGeometry>
        </mxCell>
        <mxCell id="WUDY_DLtJ3YWReSSxZhu-27" value="No" style="edgeLabel;resizable=0;html=1;align=center;verticalAlign=middle;fontSize=11;" connectable="0" vertex="1" parent="WUDY_DLtJ3YWReSSxZhu-26">
          <mxGeometry relative="1" as="geometry" />
        </mxCell>
        <mxCell id="WUDY_DLtJ3YWReSSxZhu-28" value="" style="endArrow=classic;html=1;rounded=0;fontSize=11;entryX=0.5;entryY=0;entryDx=0;entryDy=0;exitX=0.47;exitY=0.95;exitDx=0;exitDy=0;exitPerimeter=0;" edge="1" parent="1" source="WUDY_DLtJ3YWReSSxZhu-4" target="WUDY_DLtJ3YWReSSxZhu-21">
          <mxGeometry relative="1" as="geometry">
            <mxPoint x="320" y="380" as="sourcePoint" />
            <mxPoint x="330" y="430" as="targetPoint" />
            <Array as="points" />
          </mxGeometry>
        </mxCell>
        <mxCell id="WUDY_DLtJ3YWReSSxZhu-29" value="No" style="edgeLabel;resizable=0;html=1;align=center;verticalAlign=middle;fontSize=11;" connectable="0" vertex="1" parent="WUDY_DLtJ3YWReSSxZhu-28">
          <mxGeometry relative="1" as="geometry" />
        </mxCell>
        <mxCell id="WUDY_DLtJ3YWReSSxZhu-30" value="" style="endArrow=classic;html=1;rounded=0;fontSize=11;exitX=0.5;exitY=1;exitDx=0;exitDy=0;entryX=0.542;entryY=0;entryDx=0;entryDy=0;entryPerimeter=0;" edge="1" parent="1" source="WUDY_DLtJ3YWReSSxZhu-18" target="WUDY_DLtJ3YWReSSxZhu-33">
          <mxGeometry relative="1" as="geometry">
            <mxPoint x="180" y="680" as="sourcePoint" />
            <mxPoint x="125" y="770" as="targetPoint" />
            <Array as="points" />
          </mxGeometry>
        </mxCell>
        <mxCell id="WUDY_DLtJ3YWReSSxZhu-31" value="&lt;div&gt;No&lt;/div&gt;" style="edgeLabel;resizable=0;html=1;align=center;verticalAlign=middle;fontSize=11;" connectable="0" vertex="1" parent="WUDY_DLtJ3YWReSSxZhu-30">
          <mxGeometry relative="1" as="geometry" />
        </mxCell>
        <mxCell id="WUDY_DLtJ3YWReSSxZhu-32" value="&lt;div style=&quot;font-family: Consolas, &amp;quot;Courier New&amp;quot;, monospace; font-weight: normal; font-size: 4px; line-height: 19px;&quot;&gt;&lt;div style=&quot;font-size: 4px;&quot;&gt;&lt;span style=&quot;background-color: rgb(255, 255, 255);&quot;&gt;&lt;span style=&quot;font-size: 4px;&quot;&gt;management_routes_management_worker&lt;/span&gt;&lt;/span&gt;&lt;/div&gt;&lt;/div&gt;" style="shape=parallelogram;perimeter=parallelogramPerimeter;whiteSpace=wrap;html=1;fixedSize=1;fontSize=4;" vertex="1" parent="1">
          <mxGeometry x="260" y="630" width="120" height="60" as="geometry" />
        </mxCell>
        <mxCell id="WUDY_DLtJ3YWReSSxZhu-33" value="&lt;div style=&quot;font-family: Consolas, &amp;quot;Courier New&amp;quot;, monospace; font-weight: normal; font-size: 4px; line-height: 19px;&quot;&gt;&lt;div style=&quot;font-size: 4px;&quot;&gt;&lt;span style=&quot;background-color: rgb(255, 255, 255);&quot;&gt;&lt;span style=&quot;font-size: 4px;&quot;&gt;management_routes_workload_worker&lt;/span&gt;&lt;/span&gt;&lt;/div&gt;&lt;/div&gt;" style="shape=parallelogram;perimeter=parallelogramPerimeter;whiteSpace=wrap;html=1;fixedSize=1;fontSize=4;" vertex="1" parent="1">
          <mxGeometry x="60" y="790" width="120" height="60" as="geometry" />
        </mxCell>
      </root>
    </mxGraphModel>
  </diagram>
  <diagram id="Vpg5j_1hfpBYFvNpsTSr" name="management_routes_management_control_plane">
    <mxGraphModel dx="1769" dy="301" grid="1" gridSize="10" guides="1" tooltips="1" connect="1" arrows="1" fold="1" page="1" pageScale="1" pageWidth="1200" pageHeight="1600" math="0" shadow="0">
      <root>
        <mxCell id="0" />
        <mxCell id="1" parent="0" />
        <mxCell id="smKoCfMTA4Ex9Rx-vsPb-1" value="management_routes_management_control_plane" style="shape=parallelogram;perimeter=parallelogramPerimeter;whiteSpace=wrap;html=1;fixedSize=1;fontSize=4;" parent="1" vertex="1">
          <mxGeometry x="-1140" y="80" width="120" height="60" as="geometry" />
        </mxCell>
        <mxCell id="6yGg0CVonRXjboJITwY_-1" value="management_routes_management_control_plane" style="text;strokeColor=none;fillColor=none;html=1;fontSize=24;fontStyle=1;verticalAlign=middle;align=center;" vertex="1" parent="1">
          <mxGeometry width="100" height="40" as="geometry" />
        </mxCell>
      </root>
    </mxGraphModel>
  </diagram>
  <diagram id="KVm4RXvYwpMXa7Hjjjvb" name="management_routes_workload_control_plane">
    <mxGraphModel dx="1422" dy="752" grid="1" gridSize="10" guides="1" tooltips="1" connect="1" arrows="1" fold="1" page="1" pageScale="1" pageWidth="1200" pageHeight="1600" math="0" shadow="0">
      <root>
        <mxCell id="0" />
        <mxCell id="1" parent="0" />
      </root>
    </mxGraphModel>
  </diagram>
  <diagram id="eWX21C_yzSuhjAddXP7A" name="management_routes_management_load_balancer">
    <mxGraphModel dx="1422" dy="752" grid="1" gridSize="10" guides="1" tooltips="1" connect="1" arrows="1" fold="1" page="1" pageScale="1" pageWidth="1200" pageHeight="1600" math="0" shadow="0">
      <root>
        <mxCell id="0" />
        <mxCell id="1" parent="0" />
      </root>
    </mxGraphModel>
  </diagram>
  <diagram id="7ON9gzbSDcM296VatS4z" name="management_routes_workload_load_balancer">
    <mxGraphModel dx="1422" dy="752" grid="1" gridSize="10" guides="1" tooltips="1" connect="1" arrows="1" fold="1" page="1" pageScale="1" pageWidth="1200" pageHeight="1600" math="0" shadow="0">
      <root>
        <mxCell id="0" />
        <mxCell id="1" parent="0" />
      </root>
    </mxGraphModel>
  </diagram>
  <diagram id="TwTWWNfIfM7-DkJ8VAva" name="management_routes_management_worker">
    <mxGraphModel dx="1422" dy="752" grid="1" gridSize="10" guides="1" tooltips="1" connect="1" arrows="1" fold="1" page="1" pageScale="1" pageWidth="1200" pageHeight="1600" math="0" shadow="0">
      <root>
        <mxCell id="0" />
        <mxCell id="1" parent="0" />
      </root>
    </mxGraphModel>
  </diagram>
  <diagram id="ZmRPqkdmSW83Qfhm-jqz" name="management_routes_workload_worker">
    <mxGraphModel dx="1422" dy="752" grid="1" gridSize="10" guides="1" tooltips="1" connect="1" arrows="1" fold="1" page="1" pageScale="1" pageWidth="1200" pageHeight="1600" math="0" shadow="0">
      <root>
        <mxCell id="0" />
        <mxCell id="1" parent="0" />
      </root>
    </mxGraphModel>
  </diagram>
  <diagram id="QdzZhKMBvqwf1JSXKIiw" name="Page-9">
    <mxGraphModel dx="1422" dy="752" grid="1" gridSize="10" guides="1" tooltips="1" connect="1" arrows="1" fold="1" page="1" pageScale="1" pageWidth="1200" pageHeight="1600" math="0" shadow="0">
      <root>
        <mxCell id="0" />
        <mxCell id="1" parent="0" />
      </root>
    </mxGraphModel>
  </diagram>
</mxfile>
